# xmcd
#
# Track frame offsets:
#  152
#  12104
#  23472
#  33356
#  44819
#  58490
#  69207
#  81515
#  91265
#  103447
#  115204
#  125416
#  135634
#  147257
#  159729
#  172095
#  181816
#  193798
#  207446
#  218561
#  228432
#  240543
#  252707
#  262743
#  273895
#
# Disc length: 3826 seconds
#
# Revision: 0
# Processed by: cddbd v1.5.1PL2 Copyright (c) Steve Scherf et al.
# Submitted via: Collectorz.com_Music_Collector 6.9
#
DISCID=6e0ef019
DTITLE=Various Artist - Doo Wop Souvenirs - Volume 1 (Hanging Out With The Boys)
DYEAR=1900
DGENRE=Doo-Wop
TTITLE0=Tranells, The - Come On And Tell Me
TTITLE1=Davis, Billy and The Legends - Goodbye Jesse
TTITLE2=Tabbys, The - My Darling
TTITLE3=Blenders, The - Angel
TTITLE4=Brown, Jerico - Wisdom Of A Fool
TTITLE5=Harton, Bill - Like To See You In The Mood
TTITLE6=Duncan, Tommy - We Belong Together
TTITLE7=Coco, Lenny and The Chitnes - Two Times Two
TTITLE8=Campbell, G.R. - Turn Around Look At Me
TTITLE9=Royal Robins, The - How High The Moon
TTITLE10=Trend-Tones, The - This Is Love
TTITLE11=Roy and Charlie - We Fell In Love
TTITLE12=Dukays, The - Festival Of Love
TTITLE13=Boyd, Donnie - I Love The Ground You Walk On
TTITLE14=Falcons, The - This Heart Of Mine
TTITLE15=Chariots, The - A Sunday Morning Love
TTITLE16=Esco's, The - That's Life
TTITLE17=New Concepts, The - How Deep Is The Ocean
TTITLE18=Four Voices, The - Lovely One
TTITLE19=Titans, The - What Have I Done
TTITLE20=Sevilles, The - Loving You
TTITLE21=Kingpins, The - How Long Will It Last
TTITLE22=Trend-Tones, The - Never Again
TTITLE23=Victor, By Little and The Vistas - No More
TTITLE24=Quails, The - My Love
EXTD=
EXTT0=
EXTT1=
EXTT2=
EXTT3=
EXTT4=
EXTT5=
EXTT6=
EXTT7=
EXTT8=
EXTT9=
EXTT10=
EXTT11=
EXTT12=
EXTT13=
EXTT14=
EXTT15=
EXTT16=
EXTT17=
EXTT18=
EXTT19=
EXTT20=
EXTT21=
EXTT22=
EXTT23=
EXTT24=
PLAYORDER=
